<?xml version="1.0" encoding="utf-8"?>
<!-- Generator: Adobe Illustrator 15.1.0, SVG Export Plug-In . SVG Version: 6.00 Build 0)  -->
<!DOCTYPE svg PUBLIC "-//W3C//DTD SVG 1.1//EN" "http://www.w3.org/Graphics/SVG/1.1/DTD/svg11.dtd">
<svg version="1.1" id="Layer_1" xmlns="http://www.w3.org/2000/svg" xmlns:xlink="http://www.w3.org/1999/xlink" x="0px" y="0px"
	 width="141.73px" height="170.08px" viewBox="0 0 141.73 170.08" enable-background="new 0 0 141.73 170.08" xml:space="preserve">
<g>
	<path fill="#E35126" d="M12.884,149.149L-0.001,4.589h141.732l-12.885,144.561l-58.139,16.342"/>
	<polygon fill="#EE662B" points="128.847,16.217 117.849,140.034 71.022,152.92 71.022,16.217 	"/>
	<polygon fill="#EBEBEB" points="71.022,87.867 49.593,93.806 51.222,110.811 71.022,116.151 71.022,134.693 34.567,124.639 
		34.253,121.495 32.257,98.609 30.731,81.118 71.022,69.955 	"/>
	<polygon fill="#FFFFFF" points="71.022,134.693 107.161,124.638 108.931,105.65 71.022,116.152 	"/>
	<polygon fill="#FFFFFF" points="71.022,69.956 71.022,87.868 110.933,87.868 112.505,69.956 	"/>
	<polygon fill="#EBEBEB" points="71.022,34.129 44.987,41.341 44.354,34.129 26.396,34.129 29.208,66.553 46.765,61.627 
		46.493,58.524 71.022,51.729 	"/>
	<polygon fill="#FFFFFF" points="115.331,34.129 113.761,51.729 71.022,51.729 71.022,34.129 	"/>
</g>
</svg>
