<?xml version="1.0" encoding="utf-8"?>
<!-- Generator: Adobe Illustrator 15.1.0, SVG Export Plug-In . SVG Version: 6.00 Build 0)  -->
<!DOCTYPE svg PUBLIC "-//W3C//DTD SVG 1.1//EN" "http://www.w3.org/Graphics/SVG/1.1/DTD/svg11.dtd">
<svg version="1.1" id="Layer_1" xmlns="http://www.w3.org/2000/svg" xmlns:xlink="http://www.w3.org/1999/xlink" x="0px" y="0px"
	 width="64px" height="64px" viewBox="0 0 64 64" enable-background="new 0 0 64 64" xml:space="preserve">
<g>
	<circle fill="#FCFEFD" cx="32" cy="32" r="24"/>
	<path fill-rule="evenodd" clip-rule="evenodd" fill="#8F4399" d="M29.375,23.563c0-0.776,0.63-1.406,1.406-1.406
		c0.377,0,0.721,0.149,0.973,0.392l0.004-0.004l8.438,8.438v0.001c0.266,0.255,0.43,0.614,0.43,1.012c0,0.001,0,0.002,0,0.003
		s0,0.002,0,0.003c0,0.397-0.164,0.756-0.43,1.012v0.001l-8.438,8.438v-0.001c-0.254,0.244-0.598,0.395-0.977,0.395
		c-0.776,0-1.406-0.63-1.406-1.406c0-0.379,0.15-0.723,0.395-0.976v-0.001l7.465-7.464l-7.369-7.368
		C29.565,24.371,29.375,23.989,29.375,23.563z"/>
</g>
</svg>
