<?xml version="1.0" encoding="utf-8"?>
<!-- Generator: Adobe Illustrator 15.1.0, SVG Export Plug-In . SVG Version: 6.00 Build 0)  -->
<!DOCTYPE svg PUBLIC "-//W3C//DTD SVG 1.1//EN" "http://www.w3.org/Graphics/SVG/1.1/DTD/svg11.dtd">
<svg version="1.1" id="Layer_1" xmlns="http://www.w3.org/2000/svg" xmlns:xlink="http://www.w3.org/1999/xlink" x="0px" y="0px"
	 width="64px" height="64px" viewBox="0 0 64 64" enable-background="new 0 0 64 64" xml:space="preserve">
<g>
	<circle fill="#FCFEFD" cx="32" cy="32" r="24"/>
	<path fill-rule="evenodd" clip-rule="evenodd" fill="#8F4399" d="M45.594,47H18.406C17.631,47,17,46.369,17,45.593V18.405
		c0-0.776,0.631-1.406,1.406-1.406h27.188c0.777,0,1.406,0.63,1.406,1.406v27.188C47,46.369,46.371,47,45.594,47z M44.188,19.812
		H19.813v24.375h24.375V19.812z M25.906,30.124c0.389,0,0.74,0.157,0.994,0.412l3.225,3.225l6.506-6.506
		c0.255-0.255,0.606-0.412,0.994-0.412c0.777,0,1.406,0.63,1.406,1.406c0,0.389-0.156,0.74-0.412,0.994l-7.5,7.5
		c-0.254,0.255-0.605,0.412-0.994,0.412c-0.388,0-0.739-0.157-0.994-0.412l-4.219-4.219c-0.254-0.254-0.412-0.605-0.412-0.994
		C24.5,30.754,25.131,30.124,25.906,30.124z M38.563,37.155L38.563,37.155L38.563,37.155L38.563,37.155z M38.563,26.843
		L38.563,26.843L38.563,26.843L38.563,26.843z"/>
</g>
</svg>
