<?xml version="1.0" encoding="utf-8"?>
<!-- Generator: Adobe Illustrator 15.1.0, SVG Export Plug-In . SVG Version: 6.00 Build 0)  -->
<!DOCTYPE svg PUBLIC "-//W3C//DTD SVG 1.1//EN" "http://www.w3.org/Graphics/SVG/1.1/DTD/svg11.dtd">
<svg version="1.1" id="Layer_1" xmlns="http://www.w3.org/2000/svg" xmlns:xlink="http://www.w3.org/1999/xlink" x="0px" y="0px"
	 width="64px" height="64px" viewBox="0 0 64 64" enable-background="new 0 0 64 64" xml:space="preserve">
<g>
	<circle fill="#FCFEFD" cx="32" cy="32" r="24"/>
	<g>
		<path fill-rule="evenodd" clip-rule="evenodd" fill="#8F4399" d="M32,24.521c-0.775,0-1.406,0.629-1.406,1.406v15.771
			c0,0.775,0.629,1.406,1.406,1.406c0.775,0,1.406-0.631,1.406-1.406V25.928C33.406,25.15,32.777,24.521,32,24.521z"/>
		<path fill-rule="evenodd" clip-rule="evenodd" fill="#8F4399" d="M32,24.521h-1.886c-0.777,0-1.406,0.629-1.406,1.406
			c0,0.775,0.629,1.406,1.406,1.406H32"/>
		<path fill-rule="evenodd" clip-rule="evenodd" fill="#8F4399" d="M27.708,41.699c0,0.775,0.629,1.406,1.406,1.406h5.772
			c0.775,0,1.406-0.629,1.406-1.406c0-0.775-0.631-1.406-1.406-1.406h-5.772C28.337,40.293,27.708,40.922,27.708,41.699z"/>
		<circle fill-rule="evenodd" clip-rule="evenodd" fill="#8F4399" cx="32.001" cy="20.301" r="1.601"/>
	</g>
</g>
</svg>
