<?xml version="1.0" encoding="utf-8"?>
<!-- Generator: Adobe Illustrator 15.1.0, SVG Export Plug-In . SVG Version: 6.00 Build 0)  -->
<!DOCTYPE svg PUBLIC "-//W3C//DTD SVG 1.1//EN" "http://www.w3.org/Graphics/SVG/1.1/DTD/svg11.dtd">
<svg version="1.1" id="Layer_1" xmlns="http://www.w3.org/2000/svg" xmlns:xlink="http://www.w3.org/1999/xlink" x="0px" y="0px"
	 width="64px" height="64px" viewBox="0 0 64 64" enable-background="new 0 0 64 64" xml:space="preserve">
<g>
	<circle fill="#FCFEFD" cx="32" cy="32" r="24"/>
	<path fill="#8F4399" d="M40.438,29.375c0.775,0,1.406,0.63,1.406,1.406c0,0.377-0.15,0.721-0.393,0.973l0.004,0.004l-8.438,8.438
		h-0.002c-0.254,0.267-0.614,0.431-1.012,0.431c-0.001,0-0.002,0-0.003,0s-0.002,0-0.003,0c-0.397,0-0.756-0.164-1.012-0.431h-0.002
		l-8.438-8.438h0.001c-0.243-0.254-0.396-0.598-0.396-0.977c0-0.776,0.631-1.406,1.406-1.406c0.379,0,0.723,0.15,0.977,0.395h0.001
		L32,37.234l7.368-7.368C39.629,29.565,40.012,29.375,40.438,29.375z"/>
</g>
</svg>
