<?xml version="1.0" encoding="utf-8"?>
<!-- Generator: Adobe Illustrator 15.1.0, SVG Export Plug-In . SVG Version: 6.00 Build 0)  -->
<!DOCTYPE svg PUBLIC "-//W3C//DTD SVG 1.1//EN" "http://www.w3.org/Graphics/SVG/1.1/DTD/svg11.dtd">
<svg version="1.1" id="Layer_1" xmlns="http://www.w3.org/2000/svg" xmlns:xlink="http://www.w3.org/1999/xlink" x="0px" y="0px"
	 width="64px" height="64px" viewBox="0 0 64 64" enable-background="new 0 0 64 64" xml:space="preserve">
<g>
	<circle fill="#FCFEFD" cx="32" cy="32" r="24"/>
	<path fill-rule="evenodd" clip-rule="evenodd" fill="#8F4399" d="M31.531,43.719v-2.813c0-0.776,0.63-1.406,1.406-1.406h5.625
		c0.776,0,1.406,0.63,1.406,1.406v2.813c0,0.776-0.63,1.406-1.406,1.406h-5.625C32.161,45.125,31.531,44.495,31.531,43.719z
		 M45.594,40.906c0.776,0,1.406,0.63,1.406,1.406s-0.63,1.406-1.406,1.406h-4.219v-2.813H45.594z M24.031,33.406v-2.813
		c0-0.776,0.631-1.406,1.406-1.406h5.625c0.776,0,1.406,0.63,1.406,1.406v2.813c0,0.776-0.63,1.406-1.406,1.406h-5.625
		C24.662,34.813,24.031,34.183,24.031,33.406z M45.594,30.594C46.37,30.594,47,31.224,47,32c0,0.777-0.63,1.406-1.406,1.406H33.875
		v-2.813H45.594z M27.781,23.094l0-2.813c0-0.776,0.631-1.406,1.406-1.406h5.625c0.776,0,1.406,0.63,1.406,1.406v2.813
		c0,0.776-0.63,1.406-1.406,1.406h-5.625C28.412,24.5,27.781,23.87,27.781,23.094z M45.594,20.281c0.776,0,1.406,0.63,1.406,1.406
		s-0.63,1.406-1.406,1.406h-7.969v-2.813H45.594z M18.406,23.094c-0.775,0-1.406-0.63-1.406-1.406c0-0.776,0.631-1.406,1.406-1.406
		h7.969l0,2.813H18.406z M18.406,33.406C17.63,33.406,17,32.777,17,32c0-0.776,0.631-1.406,1.406-1.406h4.219v2.813H18.406z
		 M18.406,43.719c-0.775,0-1.406-0.63-1.406-1.406s0.631-1.406,1.406-1.406h11.719v2.813H18.406z"/>
</g>
</svg>
