<?xml version="1.0" encoding="utf-8"?>
<!-- Generator: Adobe Illustrator 15.1.0, SVG Export Plug-In . SVG Version: 6.00 Build 0)  -->
<!DOCTYPE svg PUBLIC "-//W3C//DTD SVG 1.1//EN" "http://www.w3.org/Graphics/SVG/1.1/DTD/svg11.dtd">
<svg version="1.1" id="Layer_1" xmlns="http://www.w3.org/2000/svg" xmlns:xlink="http://www.w3.org/1999/xlink" x="0px" y="0px"
	 width="64px" height="64px" viewBox="0 0 64 64" enable-background="new 0 0 64 64" xml:space="preserve">
<g>
	<circle fill="#FCFEFD" cx="32" cy="32" r="24"/>
	<path fill-rule="evenodd" clip-rule="evenodd" fill="#8F4399" d="M34.135,24.629l-7.368,7.368l7.464,7.464v0.001
		c0.244,0.253,0.395,0.597,0.395,0.976c0,0.776-0.63,1.406-1.406,1.406c-0.379,0-0.723-0.15-0.977-0.395v0.001l-8.438-8.438l0-0.001
		c-0.265-0.256-0.43-0.614-0.43-1.012c0-0.001,0-0.002,0-0.003s0-0.002,0-0.003c0-0.397,0.165-0.757,0.43-1.012l0-0.001l8.438-8.438
		l0.004,0.004c0.252-0.242,0.596-0.392,0.973-0.392c0.776,0,1.406,0.63,1.406,1.406C34.625,23.989,34.435,24.371,34.135,24.629z"/>
</g>
</svg>
