<?xml version="1.0" encoding="utf-8"?>
<!-- Generator: Adobe Illustrator 15.1.0, SVG Export Plug-In . SVG Version: 6.00 Build 0)  -->
<!DOCTYPE svg PUBLIC "-//W3C//DTD SVG 1.1//EN" "http://www.w3.org/Graphics/SVG/1.1/DTD/svg11.dtd">
<svg version="1.1" id="Layer_1" xmlns="http://www.w3.org/2000/svg" xmlns:xlink="http://www.w3.org/1999/xlink" x="0px" y="0px"
	 width="64px" height="64px" viewBox="0 0 64 64" enable-background="new 0 0 64 64" xml:space="preserve">
<g>
	<circle fill="#FCFEFD" cx="32.25" cy="32.417" r="24"/>
	<path fill-rule="evenodd" clip-rule="evenodd" fill="#8F4399" d="M45.5,32.417c0,0.415-0.18,0.789-0.465,1.044l0,0l-4.688,4.219
		l0,0c-0.25,0.225-0.58,0.361-0.941,0.361c-0.776,0-1.406-0.629-1.406-1.406c0-0.414,0.18-0.787,0.465-1.045l0,0l1.965-1.768h-8.523
		l0,0c-0.776,0-1.406-0.629-1.406-1.406c0-0.776,0.63-1.406,1.406-1.406l0,0h8.523l-1.965-1.768l0,0
		C38.18,28.986,38,28.613,38,28.198c0-0.776,0.63-1.406,1.406-1.406c0.361,0,0.691,0.137,0.941,0.361l0,0l4.688,4.219l0,0
		C45.32,31.628,45.5,32.001,45.5,32.417z M31.438,23.042h-5.625v18.75h5.625c0.776,0,1.406,0.631,1.406,1.406
		c0,0.777-0.63,1.406-1.406,1.406h-7.031c-0.776,0-1.406-0.629-1.406-1.406V21.635c0-0.776,0.63-1.406,1.406-1.406h7.031
		c0.776,0,1.406,0.63,1.406,1.406S32.214,23.042,31.438,23.042z"/>
</g>
</svg>
