<?xml version="1.0" encoding="utf-8"?>
<!-- Generator: Adobe Illustrator 15.1.0, SVG Export Plug-In . SVG Version: 6.00 Build 0)  -->
<!DOCTYPE svg PUBLIC "-//W3C//DTD SVG 1.1//EN" "http://www.w3.org/Graphics/SVG/1.1/DTD/svg11.dtd">
<svg version="1.1" id="Layer_1" xmlns="http://www.w3.org/2000/svg" xmlns:xlink="http://www.w3.org/1999/xlink" x="0px" y="0px"
	 width="64px" height="64px" viewBox="0 0 64 64" enable-background="new 0 0 64 64" xml:space="preserve">
<g>
	<circle fill="#FCFEFD" cx="32" cy="32" r="24"/>
	<path fill="#8F4399" d="M39.371,34.135l-7.368-7.368l-7.464,7.463h-0.001c-0.253,0.244-0.597,0.396-0.976,0.396
		c-0.776,0-1.406-0.63-1.406-1.405c0-0.38,0.15-0.724,0.395-0.978H22.55l8.438-8.438l0,0c0.257-0.265,0.615-0.43,1.013-0.43
		c0.001,0,0.002,0,0.003,0s0.002,0,0.003,0c0.397,0,0.757,0.165,1.013,0.43l0,0l8.438,8.438l-0.004,0.004
		c0.241,0.252,0.392,0.596,0.392,0.974c0,0.775-0.63,1.405-1.406,1.405C40.012,34.625,39.629,34.436,39.371,34.135z"/>
</g>
</svg>
