<?xml version="1.0" encoding="utf-8"?>
<!-- Generator: Adobe Illustrator 15.1.0, SVG Export Plug-In . SVG Version: 6.00 Build 0)  -->
<!DOCTYPE svg PUBLIC "-//W3C//DTD SVG 1.1//EN" "http://www.w3.org/Graphics/SVG/1.1/DTD/svg11.dtd">
<svg version="1.1" id="Layer_1" xmlns="http://www.w3.org/2000/svg" xmlns:xlink="http://www.w3.org/1999/xlink" x="0px" y="0px"
	 width="64px" height="64px" viewBox="0 0 64 64" enable-background="new 0 0 64 64" xml:space="preserve">
<g>
	<circle fill="#FCFEFD" cx="31.916" cy="32.417" r="24"/>
	<path fill-rule="evenodd" clip-rule="evenodd" fill="#8F4399" d="M45.51,28.198h-6.094c-0.775,0-1.406-0.63-1.406-1.406
		s0.631-1.406,1.406-1.406h2.447c-2.207-3.118-5.836-5.156-9.947-5.156c-6.73,0-12.188,5.457-12.188,12.188
		c0,6.73,5.457,12.187,12.188,12.187c6.73,0,12.187-5.457,12.187-12.187c0-0.776,0.631-1.406,1.406-1.406
		c0.777,0,1.406,0.63,1.406,1.406c0,8.285-6.715,15-15,15c-8.284,0-15-6.715-15-15c0-8.284,6.716-15,15-15
		c5.027,0,9.468,2.479,12.187,6.276v-2.526c0-0.776,0.631-1.406,1.406-1.406c0.777,0,1.406,0.63,1.406,1.406v5.625
		C46.916,27.568,46.287,28.198,45.51,28.198z"/>
</g>
</svg>
