<?xml version="1.0" encoding="utf-8"?>
<!-- Generator: Adobe Illustrator 15.1.0, SVG Export Plug-In . SVG Version: 6.00 Build 0)  -->
<!DOCTYPE svg PUBLIC "-//W3C//DTD SVG 1.1//EN" "http://www.w3.org/Graphics/SVG/1.1/DTD/svg11.dtd">
<svg version="1.1" id="Layer_1" xmlns="http://www.w3.org/2000/svg" xmlns:xlink="http://www.w3.org/1999/xlink" x="0px" y="0px"
	 width="200px" height="200px" viewBox="0 0 200 200" enable-background="new 0 0 200 200" xml:space="preserve">
<g>
	<g>
		<path fill-rule="evenodd" clip-rule="evenodd" fill="#FFE300" d="M177.798,151.593L110.145,36.948
			c-2.026-3.432-5.819-5.739-10.16-5.739c-4.341,0-8.132,2.307-10.16,5.739L22.17,151.593c-2.023,3.432-2.17,7.793,0,11.467
			c2.175,3.672,6.109,5.731,10.158,5.731h135.31c4.051,0,7.983-2.06,10.159-5.731C179.968,159.386,179.821,155.024,177.798,151.593z
			 M100.026,158.207c-5.844,0-10.583-4.738-10.583-10.583s4.739-10.583,10.583-10.583c5.845,0,10.583,4.738,10.583,10.583
			S105.871,158.207,100.026,158.207z M110.609,115.875c0,5.845-4.738,10.583-10.583,10.583c-5.844,0-10.583-4.738-10.583-10.583
			V73.542c0-5.844,4.739-10.583,10.583-10.583c5.845,0,10.583,4.739,10.583,10.583V115.875z"/>
	</g>
</g>
</svg>
