<?xml version="1.0" encoding="utf-8"?>
<!-- Generator: Adobe Illustrator 25.4.1, SVG Export Plug-In . SVG Version: 6.00 Build 0)  -->
<svg version="1.1" id="Layer_1" xmlns="http://www.w3.org/2000/svg" xmlns:xlink="http://www.w3.org/1999/xlink" x="0px" y="0px"
	 viewBox="0 0 391.66 317.29" style="enable-background:new 0 0 391.66 317.29;" xml:space="preserve">
<style type="text/css">
	.st0{fill:#8D3B88;}
	.st1{fill:#FFFFFF;}
</style>
<g>
	<path class="st0" d="M388.98,117.48c-2.28-2.81-5.7-4.44-9.32-4.44h-12.18c-1.89,0-3.69,0.44-5.29,1.23
		c-1.63-0.8-3.43-1.23-5.29-1.23h-5.19l1.13-5.32c0.75-3.54-0.13-7.24-2.41-10.05c-2.28-2.82-5.71-4.45-9.33-4.45h-13.19
		c-3.62,0-6.96,1.62-9.2,4.29c-1.43-1.71-3.33-3.02-5.56-3.73c-2.93-0.93-6.1-1.4-9.43-1.4c-1.18,0-2.35,0.06-3.52,0.18l8.22-39.08
		c0.74-3.54-0.15-7.22-2.43-10.03c-2.28-2.81-5.7-4.44-9.32-4.44h-22.62c-4.01,0-7.64,1.99-9.83,5.11c-0.16-0.22-0.32-0.44-0.5-0.66
		c-2.28-2.82-5.71-4.46-9.33-4.46h-22.93c-3.13,0-6.03,1.21-8.19,3.23c-2.21-2.06-5.13-3.23-8.19-3.23h-22.46
		c-1.69,0-3.3,0.35-4.78,0.99c-2.18-0.55-4.41-0.83-6.61-0.83c-14.4,0-26.49,5.31-35.53,15.49l6.89-32.35
		c0.81-3.82-0.28-7.79-2.94-10.66c-2.29-2.47-5.48-3.84-8.8-3.84c-0.53,0-1.07,0.04-1.61,0.11l-23.09,3.12
		c-3.89,0.53-7.19,2.9-8.97,6.25C99.45,7.15,86.21,0,66.76,0c-15.1,0-31.2,5.39-44.18,14.78C8.23,25.16,0,38.93,0,52.56
		c0,7.64,2.45,24.77,24.05,26.91l-10.06,47.02c-0.76,3.54,0.13,7.24,2.4,10.06c2.28,2.82,5.71,4.45,9.33,4.45h18.61
		c-7.7,2.52-15.14,6.26-21.76,11.06C8.23,162.44,0,176.21,0,189.84c0,8.16,2.8,27.13,28.69,27.13c3.41,0,6.66-1.45,8.94-4
		c1.24-1.39,2.13-3.02,2.62-4.77v58.08c0,6.63,5.37,12,12,12h22.46c4.92,0,9.34-3,11.15-7.57l8.36-21.06v16.64c0,6.63,5.37,12,12,12
		h22.46c5.01,0,9.49-3.11,11.24-7.8l7.72-20.68c1.02,17.7,13.32,29.42,31.27,29.42c5.44,0,12.57-1.36,19.89-6.57
		c4.59,3.25,11.11,5.63,20.36,5.63c5.57,0,11.41-2.01,17.92-6.22c1.28,0.96,2.61,1.77,3.97,2.47c-1.89,3.85-3.01,8.43-3.01,13.9
		c0,16.18,13.36,28.85,30.41,28.85c20.7,0,35.33-13.14,40.14-36.05l19.03-90.48c0.74-3.54-0.15-7.22-2.43-10.03
		c-0.51-0.63-1.08-1.18-1.69-1.69h4.4c1.51,0,2.97-0.29,4.31-0.81c-0.01,0.25-0.02,0.49-0.02,0.74c0,11.82,9.62,21.07,21.91,21.07
		c13.8,0,23.9-8.9,27.03-23.81l10.25-48.72C392.15,123.97,391.25,120.28,388.98,117.48z M40.25,201.67
		c-0.37-1.42-0.89-2.49-1.22-3.16c-0.17-0.35-0.52-1.08-0.52-4.14c0-3.91,0.57-7.32,1.74-10.28V201.67z M95.81,146.17l-10.42,30.37
		L85,149.42c-0.09-6.2-4.89-11.31-11.08-11.79c-2.11-0.16-4.5-0.35-7.16-0.35c-3.58,0-7.21,0.31-10.84,0.9
		c1.99-1.67,3.44-3.98,4.01-6.67l7.62-35.61c9.35-1.34,17.54-4.74,24.4-9.49l-3.24,15.16c-0.79,3.76-1.19,7.27-1.19,10.43
		c0,12.81,6.16,22.15,16.76,26.42C100.39,139.38,97.16,142.25,95.81,146.17z M149.84,146.02l-10.87,30.37v-26.33
		c0-5.58-3.81-10.26-8.97-11.6c2.51-1.1,5.12-2.56,7.84-4.4c3.99,3.72,9.1,6.21,15.05,7.28
		C151.55,142.62,150.49,144.2,149.84,146.02z M211.84,176.28c-1.69,0-3.3,0.35-4.78,0.99c-2.18-0.55-4.41-0.83-6.61-0.83
		c-11.14,0-20.88,3.2-28.91,9.34l11.76-31.52c1.37-3.68,0.86-7.81-1.39-11.04c-1.74-2.51-4.36-4.22-7.28-4.86
		c1.63-0.82,3.29-1.8,4.96-2.98c4.59,3.25,11.11,5.63,20.36,5.63c5.57,0,11.42-2.01,17.93-6.22c1.22,0.93,2.54,1.76,3.96,2.49
		c-1.88,3.85-3,8.42-3,13.88c0,10.91,6.08,20.22,15.26,25.13H211.84z M266.71,176.28c1.03-0.49,2.03-1.03,3.01-1.61
		c0.49,0.59,1.01,1.13,1.59,1.61H266.71z M283.44,181.4c-0.16-0.22-0.32-0.44-0.49-0.66c-0.51-0.63-1.09-1.2-1.7-1.7h4.4
		C284.81,179.72,284.06,180.51,283.44,181.4z"/>
	<path class="st1" d="M172.06,150.06l-43.37,116.23h-22.46v-79.41l-31.51,79.41H52.25V159.73c-17,5.3-25.74,17.47-25.74,34.63
		c0,7.96,2.03,9.2,2.18,10.61c-10.76,0-16.69-3.9-16.69-15.13c0-20.75,28.71-40.56,54.76-40.56c2.18,0,4.21,0.16,6.24,0.31
		l1.4,95.94l32.76-95.48h19.81v95.48l34.17-95.48H172.06z M315.89,188.28l-19.03,90.48c-4.68,22.31-18.1,26.52-28.39,26.52
		c-9.52,0-18.41-6.71-18.41-16.85c0-14.51,12.17-19.03,26.99-23.4l2.34-10.77c-7.02,6.4-14.98,12.01-21.22,12.01
		c-9.96,0-16.57-3.56-18.64-11.27c-6.82,6.08-14.27,11.27-20.35,11.27c-10.14,0-17-3.74-19.03-11.86
		c-4.68,6.4-11.7,12.79-21.22,12.79c-14.98,0-19.35-10.61-19.35-19.81c0-26.83,9.67-58.97,40.87-58.97c3.74,0,7.64,1.56,10.45,3.9
		l0.94-4.06h22.46l-11.23,53.04c-0.31,1.72-0.62,3.43-0.62,4.84c0,3.43,1.56,5.93,7.8,5.93c2.63,0,5.59-1.56,8.6-3.73
		c0.07-2.2,0.36-4.44,0.91-7.04l10.92-53.04h22.93l-11.39,53.04c-0.47,1.72-0.78,3.43-0.78,4.99c0,3.43,1.72,5.77,7.8,5.77
		c3.59,0,7.8-2.81,11.86-6.24l12.17-57.57H315.89z M209.34,199.98c-2.5-2.18-5.46-2.81-7.64-2.81c-11.7,0-21.06,24.8-21.06,46.02
		c0,9.36,5.15,11.08,9.05,11.08c3.59,0,7.02-3.43,9.98-7.8c0.16-1.56,0.47-3.28,0.94-5.15L209.34,199.98z M275.95,270.03
		c-9.83,3.28-17.32,7.8-17.32,16.22c0,2.18,2.81,5.15,6.24,5.15c3.12,0,7.33-2.96,9.2-12.17L275.95,270.03z M66.76,12
		C40.71,12,12,31.81,12,52.56c0,11.23,5.93,15.13,16.69,15.13c-0.16-1.4-2.18-2.65-2.18-10.61c0-23.71,15.13-37.91,40.41-37.91
		c13.73,0,19.34,9.67,19.34,21.22c0,16.54-11.7,37.13-27.3,38.38l11.08-52.11l-23.09,3.12L25.73,129h22.46l9.52-44.46h0.78
		c28.08,0,45.09-22,45.09-41.81C103.58,26.66,92.34,12,66.76,12z M274.03,143.38c-6.06-3.29-9.61-9.46-9.61-17.5
		c0-12.06,9.9-23.95,22.77-29.78L296.68,51h-22.62l-12.17,57.57c-4.06,3.43-8.27,6.24-11.86,6.24c-6.08,0-7.8-2.34-7.8-5.77
		c0-1.56,0.31-3.28,0.78-4.99L254.4,51h-22.93l-10.92,53.04c-0.55,2.6-0.84,4.84-0.91,7.04c-3.01,2.17-5.98,3.73-8.6,3.73
		c-6.24,0-7.8-2.5-7.8-5.93c0-1.4,0.31-3.12,0.62-4.84L215.09,51h-22.46l-0.94,4.06c-2.81-2.34-6.71-3.9-10.45-3.9
		c-31.04,0-40.77,31.8-40.87,58.55c-3.63,2.86-7.27,5.1-10.43,5.1c-6.08,0-7.8-2.34-7.8-5.77c0-1.25,0.31-2.65,0.78-4.99
		l17.94-84.24l-23.09,3.12l-17.32,81.12c-0.62,2.96-0.94,5.62-0.94,7.96c0,11.7,7.33,17,19.34,17c6.62,0,14.87-6.15,22.16-12.91
		c1.69,7.28,6.9,13.85,18.69,13.85c9.52,0,16.54-6.4,21.22-12.79c2.03,8.11,8.89,11.86,19.03,11.86c6.08,0,13.53-5.19,20.35-11.27
		c2.07,7.71,8.68,11.27,18.64,11.27c6.24,0,14.2-5.62,21.22-12.01l-2.34,10.76c-14.82,4.37-26.99,8.89-26.99,23.4
		c0,10.14,8.89,16.85,18.41,16.85c6.11,0,13.32-1.48,19.15-7.36L274.03,143.38z M179.39,104.04c-0.47,1.87-0.78,3.59-0.94,5.15
		c-2.96,4.37-6.4,7.8-9.98,7.8c-3.9,0-9.05-1.72-9.05-11.08c0-21.22,9.36-46.02,21.06-46.02c2.18,0,5.15,0.62,7.64,2.81
		L179.39,104.04z M252.86,141.95c-1.87,9.2-6.08,12.17-9.21,12.17c-3.43,0-6.24-2.96-6.24-5.15c0-8.42,7.49-12.95,17.32-16.22
		L252.86,141.95z M341.1,105.21l-13.19,61.82h-12.1l8.4-39.73l-15.96,39.73h-11.51v-35.87l-11.09,35.87h-6.72l18.82-57.71
		c-8.4,2.69-13.52,9.32-13.52,18.98c0,4.28,1.09,4.96,1.18,5.71c-5.8,0-8.99-2.1-8.99-8.15c0-10.25,14.2-21.5,27.3-21.5
		c1.93,0,3.95,0.25,5.8,0.84v48.38l18.4-48.38H341.1z M379.66,125.04l-10.25,48.72c-2.52,12.01-9.74,14.28-15.29,14.28
		c-5.12,0-9.91-3.61-9.91-9.07c0-7.81,6.55-10.25,14.53-12.6l1.26-5.8c-3.78,3.44-8.06,6.47-11.42,6.47
		c-6.55,0-10.42-2.86-10.42-9.16c0-1.34,0.17-2.69,0.5-4.28l5.88-28.56h12.35l-6.13,28.56c-0.25,0.92-0.42,1.85-0.42,2.69
		c0,1.85,0.92,3.11,4.2,3.11c1.93,0,4.2-1.51,6.38-3.36l6.55-31H379.66z M358.15,169.05c-5.29,1.76-9.32,4.2-9.32,8.74
		c0,1.18,1.51,2.77,3.36,2.77c1.68,0,3.95-1.6,4.96-6.55L358.15,169.05z"/>
</g>
</svg>
