<?xml version="1.0" encoding="utf-8"?>
<!-- Generator: Adobe Illustrator 25.4.1, SVG Export Plug-In . SVG Version: 6.00 Build 0)  -->
<svg version="1.1" id="Layer_1" xmlns="http://www.w3.org/2000/svg" xmlns:xlink="http://www.w3.org/1999/xlink" x="0px" y="0px"
	 viewBox="0 0 345.4 149.3" style="enable-background:new 0 0 345.4 149.3;" xml:space="preserve">
<style type="text/css">
	.st0{fill:#FFFFFF;stroke:#000000;stroke-width:0.927;stroke-linecap:round;stroke-miterlimit:10;}
	.st1{fill:#FFFFFF;stroke:#000000;stroke-linecap:round;stroke-miterlimit:10;}
</style>
<g>
	<path d="M238.5,92.4l-6.8,0.3c4.3,7-5.6,32-26,28.6c2.7,13.6-9,22-22.2,18.7c-11.4-2.9-18-4-37.9-0.4c-24.7,4.5-53.1,12.2-82.3-4.9
		c-2.6-1.5-5.5,0-6.3,1.7c-1.4,3.2-0.4,12.7-8.3,12.9H19c-10.6,0-19.1-15.5-19-64.8C0.2,33,0.8,12.9,22,12.8c20.9-0.2,26.6,0,26.6,0
		c6.6,0.2,7.7,4.6,8.7,7.5c0.6,1.7,3.1,2.4,4.8,1.6c2.6-1.2,29-12.6,51.8-15c21.1-2.2,29.4-8.6,43.6-6.4c16.8,2.6,71.3,0.8,87.6,0.6
		C261,0.9,286.6,6,320.6,5.3c32.4-0.7,32.6,36.8,3.4,35.1c-23-1.4-23.8,1.5-31.8,0.5c-14-1.8-29.4-0.1-40.2,0.7
		c-5,0.4-10.4-1.1-24.9,0.4c8,1.9,8.3,4.1,19.7,9.3C263.6,59.4,253.9,91.4,238.5,92.4z"/>
</g>
<g>
	<g>
		<path class="st0" d="M37.5,79.1c-0.5,20.5,2.9,55.9,3.9,59.1c0.9,3.1-1,5-4.9,4.5c-2.7-0.3-16.5-0.2-16.5-0.2
			c-6,0-13.4-7.2-13.4-61.8C6.9,24.2,8.9,17,23.2,17L41,17.7c1.1,0.2,1.9,1,2.5,2.3C44.9,23.1,38.7,27.4,37.5,79.1z"/>
	</g>
	<g>
		<path class="st1" d="M90.7,84.6c-0.9,0.9-1.2,2.4-0.8,3.2c1.9,3.6,6.1,0.9,9.3,0.6c2.6-0.2,17.1-2.6,22.4,0.8s15.7,10,19.3,24.5
			c0.6,2.6,5,10.7,11.9,12.9c4.9,1.6,4.1,6.5-0.1,6.9c-11.1,1.1-14.5,5.7-49,5.6c-27.5-1.5-53.3-6.8-55-43.4
			c-0.6-20.1,0.3-48.2,3.2-58.4c3-10.3,11.4-10.2,18.8-14c30.7-13.3,51.2-12.5,68.1-16.2c6.7-1.5,11.8-4.1,20.3,1.9
			c18.1,12.8,40,17.1,45.3,20.9c3.7,2.4,4.7,3.6,5.3,4.9c1,2.2,4.7,2.5,8,5.1c2.1,1.5,3,2.3,5.3,3.2c-3,4-5.8-0.5-10,8.1
			c-0.9,1.9,0.1,5.3,0.7,6.8c2,3.5,9.5,4.1,12.4,4.6c2.3,0.4,5.1,0.9,7.8,1.4c7,1.3,9.1-5.9,9.4-3.3c1.3,12.9-16,10.2-21.7,9.3
			c-5.7-0.5-10.3-3.3-16-4.7c-2.5-1.9-15.5-2.3-15.4-11.5c-0.2-1.5,0.1-4.8-4-3.3c-3.1,1.1-17.8,1-20-3.2c-1-1.9-2-3.2-4.1-4.2
			s-3.3,0.3-3,2.6c0.4,3,0.1,7.2-4.2,8.1c-3.8,1-5.7,1.1-8.4-0.6c-2.8-1.5-8.1-4.9-10.6-4.7c-2,0.6-3.5,2.2,1.1,4.4
			c4.2,2,9.2,8.9,2.1,16.7c-10.6,11.5-7.2,12.4-44.7,13.7C92.7,83.3,91.7,83.6,90.7,84.6z"/>
	</g>
	<g>
		<path class="st1" d="M152.2,85.3c-4.9-6.3-8.7-8.4-4.1-14.5c0.6-1.1,2.3-1.2,6.9-0.1c2.5,0.6,10.7,10.5,3.5,17.1
			C156.8,88.8,154.9,89.4,152.2,85.3z"/>
	</g>
	<g>
		<path class="st1" d="M144.3,104.9c-3,0.9-7.8-12.9-7.6-13.8c0.3-1.3,0.5-2.8,6.6-3.2c2.8,0,7.8,5.3,7.2,11.2
			C150.2,103,144.9,104.7,144.3,104.9z"/>
	</g>
	<g>
		<path class="st1" d="M169,69.9c-2.6-2.9-8.6-8.4-6.9-11.3c2-3.5,4.3-5.2,10.5-3c4.1,1.5,11.8,8.1,3.5,16.3
			C173.6,72.9,172.7,73.8,169,69.9z"/>
	</g>
	<g>
		<path class="st1" d="M200.3,121.1c4.3,17.9-15.4,16.6-23.4,11.9c-12.8-7.6-23.9-9.5-28.2-14.6c-2.5-2.9-6.1-10.2-2.5-10.6
			c3.2-0.3,6.1-3,7.8-4.5c0.7-0.7-0.3-5.6,0.8-5.5c0.8,0.2-0.6,5.3,11.8,11.4c5.3,2.5,16.8,7.1,20.9,8c3.1,0.7,6.3,2.2,11.8,2.9
			C200.1,120.1,200.3,120.7,200.3,121.1z"/>
	</g>
	<g>
		<path class="st1" d="M224.2,92.7c-13.5-0.8-19,0.1-22.3,0.2c-16.7,1.7-24.1-4.7-27.7-9.4c-3.4-3.2-4.4-5.9-7-8
			c-2.1-1.7-4.5-5.4-3,0.3c0.7,2.8,3,4.5,1.1,9.2c-1.7,2.8-2.1,4.5-7.2,7.6c-0.6,0.2-1.2,0.3-0.8,0.6c1.5,1.3,3.1,10,17.1,13.6
			c18.5,4.8,26.8,9.4,30.7,10.1c0.7,0.1,1.7,0.1,2.6,0c5.7-0.3,7.8-1.2,9.6-2.7c1.8-1.4,11.3-9.5,8.8-19.5
			C225.7,93.6,225.1,92.7,224.2,92.7z"/>
	</g>
	<g>
		<path class="st1" d="M249.3,61.5c1.3,0,3.6,20.1-10.4,25.2c-6.9,2.5-10.6,0.7-17.4,1c-11.8-0.6-21.2,0.3-26,0.2
			c-7-0.1-12.5-1.6-16.3-5.7c-1.9-2-6.2-5.3-3.3-6.4s4.6-1.6,7.1-6.3c3.2-6.1-1-10.1,2.8-8.5c3.2,1.4,3.5,1.5,6.9,4
			c13.3,9.4,55.5,19.5,54.6-1.7C247.4,61.7,248.8,60.5,249.3,61.5z"/>
	</g>
	<g>
		<path class="st1" d="M227.9,46.9c2.5-0.2,4.4,1.5,5.9,2.1c2.6,1.1,12.1,2.8,7.8,8.3c-4.4,5.5-17.2,0.8-21.8-0.8
			c-1.9-0.8-2.6-2.1-2.6-3.8C217.1,51,218.2,46.9,227.9,46.9z"/>
	</g>
	<g>
		<path class="st1" d="M298.8,10.1c-10.4,0.2-34.5-5.3-47.2-2.8c-15.5-2.9-42.5,0.1-51.4-0.6c-7.6,0-24.6-1.7-36.4,0
			c3.2,1.3,15.5,10.6,34.7,15.6c6.6,1.5,11.9,4.6,17.2,11.8c13.4,2.2,32.9,3.1,33.8,1.2c0.4-0.9,0.7-1.9,3.1-1.4
			c2.2,0.5,1,1,5.1,1.2c21,0.6,32.2,0.2,32.2,0.2c4.6-0.3,3.1-2,4.7-2.5c1.5-0.4,0.4,1.1,5.3,1.7c2.6,0.3,9.3,1.2,28,0.9
			c16.5,0.4,20.3-24.6-7.6-25.7C301.5,9,301.7,10.7,298.8,10.1z"/>
	</g>
</g>
</svg>
